<svg width="64" height="64" viewBox="0 0 64 64" fill="none" xmlns="http://www.w3.org/2000/svg">
<g clip-path="url(#clip0_7_123)">
<path d="M22.5339 51.3696L22.5339 54.8923L46.2048 54.8923L48.2968 53.1803L46.2048 51.3696L22.5339 51.3696ZM15.769 50.1033C15.9761 49.8981 16.2776 49.7717 16.5986 49.7808L19.6903 49.8694L19.8125 56.2062L16.7208 56.1177C16.062 56.0988 15.5023 55.5339 15.5068 54.8923L15.4305 50.9381C15.424 50.6001 15.5536 50.3167 15.769 50.1033ZM21.498 49.9212L46.7712 49.9212L50 53.1803L46.8934 56.258L31.1699 56.2062L21.6202 56.258L21.498 49.9212Z" fill="#F8F8F8"/>
<path d="M32.5 10L21 16.65L32.5 23.3L42.0833 17.7586V24.725H44V16.65L32.5 10ZM24.8324 20.9155V25.2C25.7243 26.3807 26.8816 27.3389 28.2125 27.9986C29.5434 28.6582 31.0111 29.0011 32.499 29C33.9872 29.0013 35.4551 28.6584 36.7861 27.9988C38.1172 27.3391 39.2747 26.3808 40.1667 25.2V20.9164L32.5 25.3501L24.8324 20.9155Z" fill="#F8F8F8"/>
<path d="M15 43.625V11.375C15 9.94946 15.5597 8.58231 16.556 7.5743C17.5523 6.56629 18.9035 6 20.3125 6H49V49H20.3125C18.9035 49 17.5523 48.4337 16.556 47.4257C15.5597 46.4177 15 45.0505 15 43.625ZM15 43.625C15 42.1995 15 43.0875 16.0625 42.55C18.1875 43.0875 18.9035 43.625 20.3125 43.625H49" stroke="#F8F8F8" stroke-width="2" stroke-linecap="round" stroke-linejoin="round"/>
<path d="M43.7933 31V28C43.7933 27.7348 43.5932 27.4804 43.237 27.2929C42.8808 27.1054 42.3976 27 41.8939 27L22.8994 27C22.3957 27 21.9125 27.1054 21.5563 27.2929C21.2001 27.4804 21 27.7348 21 28V31C21 31.2652 21.2001 31.5196 21.5563 31.7071C21.9125 31.8946 22.3957 32 22.8994 32H41.8939C42.3976 32 42.8808 31.8946 43.237 31.7071C43.5932 31.5196 43.7933 31.2652 43.7933 31ZM41.8939 28V31H39.9944V28H41.8939ZM38.095 28V31H26.6983V28L38.095 28ZM22.8994 31V28H24.7989V31L22.8994 31Z" fill="#F8F8F8"/>
<path d="M43.7933 36V33C43.7933 32.7348 43.5932 32.4804 43.237 32.2929C42.8808 32.1054 42.3976 32 41.8939 32H22.8994C22.3957 32 21.9126 32.1054 21.5563 32.2929C21.2001 32.4804 21 32.7348 21 33V36C21 36.2652 21.2001 36.5196 21.5563 36.7071C21.9126 36.8946 22.3957 37 22.8994 37H41.8939C42.3976 37 42.8808 36.8946 43.237 36.7071C43.5932 36.5196 43.7933 36.2652 43.7933 36ZM41.8939 33V36H39.9944V33H41.8939ZM38.095 33V36H26.6983V33H38.095ZM22.8994 36V33H24.7989V36H22.8994Z" fill="#F8F8F8"/>
<path d="M44 41V38C44 37.7348 43.7999 37.4804 43.4437 37.2929C43.0875 37.1054 42.6043 37 42.1006 37H23.1061C22.6024 37 22.1192 37.1054 21.763 37.2929C21.4068 37.4804 21.2067 37.7348 21.2067 38V41C21.2067 41.2652 21.4068 41.5196 21.763 41.7071C22.1192 41.8946 22.6024 42 23.1061 42H42.1006C42.6043 42 43.0875 41.8946 43.4437 41.7071C43.7999 41.5196 44 41.2652 44 41ZM42.1006 38V41H40.2011V38H42.1006ZM38.3017 38V41H26.905V38H38.3017ZM23.1061 41V38H25.0056V41H23.1061Z" fill="#F8F8F8"/>
</g>
<defs>
<clipPath id="clip0_7_123">
<rect width="64" height="64" fill="white"/>
</clipPath>
</defs>
</svg>
