<svg width="32" height="32" viewBox="0 0 32 32" fill="none" xmlns="http://www.w3.org/2000/svg">
<path d="M14.6667 22.6667H17.3334V14.6667H14.6667V22.6667ZM16 12C16.3778 12 16.6947 11.872 16.9507 11.616C17.2067 11.36 17.3342 11.0436 17.3334 10.6667C17.3334 10.2889 17.2054 9.97202 16.9494 9.71602C16.6934 9.46002 16.3769 9.33247 16 9.33335C15.6222 9.33335 15.3054 9.46135 15.0494 9.71735C14.7934 9.97335 14.6658 10.2898 14.6667 10.6667C14.6667 11.0445 14.7947 11.3614 15.0507 11.6174C15.3067 11.8734 15.6231 12.0009 16 12ZM16 29.3334C14.1556 29.3334 12.4222 28.9831 10.8 28.2827C9.1778 27.5822 7.76669 26.6325 6.56669 25.4334C5.36669 24.2334 4.41691 22.8222 3.71735 21.2C3.0178 19.5778 2.66758 17.8445 2.66669 16C2.66669 14.1556 3.01691 12.4222 3.71735 10.8C4.4178 9.1778 5.36758 7.76669 6.56669 6.56669C7.76669 5.36669 9.1778 4.41691 10.8 3.71735C12.4222 3.0178 14.1556 2.66758 16 2.66669C17.8445 2.66669 19.5778 3.01691 21.2 3.71735C22.8222 4.4178 24.2334 5.36758 25.4334 6.56669C26.6334 7.76669 27.5836 9.1778 28.284 10.8C28.9845 12.4222 29.3342 14.1556 29.3334 16C29.3334 17.8445 28.9831 19.5778 28.2827 21.2C27.5822 22.8222 26.6325 24.2334 25.4334 25.4334C24.2334 26.6334 22.8222 27.5836 21.2 28.284C19.5778 28.9845 17.8445 29.3342 16 29.3334ZM16 26.6667C18.9778 26.6667 21.5 25.6334 23.5667 23.5667C25.6334 21.5 26.6667 18.9778 26.6667 16C26.6667 13.0222 25.6334 10.5 23.5667 8.43335C21.5 6.36669 18.9778 5.33335 16 5.33335C13.0222 5.33335 10.5 6.36669 8.43335 8.43335C6.36669 10.5 5.33335 13.0222 5.33335 16C5.33335 18.9778 6.36669 21.5 8.43335 23.5667C10.5 25.6334 13.0222 26.6667 16 26.6667Z" fill="#FBFAF6"/>
</svg>
