<svg width="24" height="27" viewBox="0 0 24 27" fill="none" xmlns="http://www.w3.org/2000/svg">
<path d="M23.8933 18.3266C23.8258 18.165 23.7311 18.0162 23.6133 17.8866L19.6133 13.8866C19.3623 13.6356 19.0217 13.4945 18.6667 13.4945C18.3116 13.4945 17.9711 13.6356 17.72 13.8866C17.4689 14.1377 17.3279 14.4782 17.3279 14.8333C17.3279 15.1884 17.4689 15.5289 17.72 15.78L19.4533 17.5H12C11.6464 17.5 11.3072 17.6404 11.0572 17.8905C10.8071 18.1405 10.6667 18.4797 10.6667 18.8333C10.6667 19.1869 10.8071 19.5261 11.0572 19.7761C11.3072 20.0261 11.6464 20.1666 12 20.1666H19.4533L17.72 21.8866C17.595 22.0106 17.4958 22.158 17.4281 22.3205C17.3605 22.483 17.3256 22.6573 17.3256 22.8333C17.3256 23.0093 17.3605 23.1836 17.4281 23.3461C17.4958 23.5085 17.595 23.656 17.72 23.78C17.844 23.9049 17.9914 24.0041 18.1539 24.0718C18.3164 24.1395 18.4907 24.1744 18.6667 24.1744C18.8427 24.1744 19.017 24.1395 19.1794 24.0718C19.3419 24.0041 19.4894 23.9049 19.6133 23.78L23.6133 19.78C23.7368 19.6548 23.8322 19.5048 23.8933 19.34C24.0267 19.0153 24.0267 18.6512 23.8933 18.3266ZM14.6667 24.1666H4C3.64638 24.1666 3.30724 24.0261 3.05719 23.7761C2.80714 23.5261 2.66667 23.1869 2.66667 22.8333V4.16663C2.66667 3.813 2.80714 3.47387 3.05719 3.22382C3.30724 2.97377 3.64638 2.83329 4 2.83329H10.6667V6.83329C10.6667 7.89416 11.0881 8.91157 11.8382 9.66172C12.5884 10.4119 13.6058 10.8333 14.6667 10.8333H20C20.2632 10.832 20.5202 10.7528 20.7385 10.6057C20.9568 10.4586 21.1266 10.2501 21.2267 10.0066C21.3288 9.76381 21.3567 9.49619 21.3068 9.23754C21.257 8.97889 21.1317 8.74079 20.9467 8.55329L12.9467 0.553293C12.8364 0.449581 12.7104 0.364067 12.5733 0.299959H12.4533L12.08 0.166626H4C2.93913 0.166626 1.92172 0.588053 1.17157 1.3382C0.421427 2.08834 0 3.10576 0 4.16663V22.8333C0 23.8942 0.421427 24.9116 1.17157 25.6617C1.92172 26.4119 2.93913 26.8333 4 26.8333H14.6667C15.0203 26.8333 15.3594 26.6928 15.6095 26.4428C15.8595 26.1927 16 25.8536 16 25.5C16 25.1463 15.8595 24.8072 15.6095 24.5571C15.3594 24.3071 15.0203 24.1666 14.6667 24.1666ZM13.3333 4.71329L16.7867 8.16663H14.6667C14.313 8.16663 13.9739 8.02615 13.7239 7.7761C13.4738 7.52605 13.3333 7.18691 13.3333 6.83329V4.71329Z" fill="white"/>
</svg>
