<svg width="25" height="27" viewBox="0 0 25 27" fill="none" xmlns="http://www.w3.org/2000/svg">
<path d="M17.3333 1.22913V6.39579C17.3333 6.73836 17.4738 7.0669 17.7238 7.30914C17.9739 7.55137 18.313 7.68746 18.6666 7.68746H24" stroke="white" stroke-width="2" stroke-linecap="round" stroke-linejoin="round"/>
<path d="M5.33331 14.1458V3.81246C5.33331 3.12732 5.61426 2.47024 6.11436 1.98577C6.61446 1.5013 7.29274 1.22913 7.99998 1.22913H17.3333L24 7.68746V21.8958C24 22.5809 23.719 23.238 23.2189 23.7225C22.7188 24.207 22.0406 24.4791 21.3333 24.4791H14M1.33331 21.8958H10.6666M10.6666 21.8958L6.66665 18.0208M10.6666 21.8958L6.66665 25.7708" stroke="white" stroke-width="2" stroke-linecap="round" stroke-linejoin="round"/>
</svg>
