<svg width="128" height="128" viewBox="0 0 128 128" fill="none" xmlns="http://www.w3.org/2000/svg">
<rect x="2" y="2" width="124" height="124" rx="62" stroke="#012C56" stroke-width="4"/>
<path d="M63.8333 28C68.5851 28 73.1423 29.8876 76.5023 33.2477C79.8624 36.6077 81.75 41.1649 81.75 45.9167C81.75 50.6685 79.8624 55.2256 76.5023 58.5857C73.1423 61.9457 68.5851 63.8333 63.8333 63.8333C59.0815 63.8333 54.5244 61.9457 51.1643 58.5857C47.8043 55.2256 45.9167 50.6685 45.9167 45.9167C45.9167 41.1649 47.8043 36.6077 51.1643 33.2477C54.5244 29.8876 59.0815 28 63.8333 28ZM63.8333 72.7917C83.6312 72.7917 99.6667 80.8094 99.6667 90.7083V99.6667H28V90.7083C28 80.8094 44.0354 72.7917 63.8333 72.7917Z" fill="#012C56"/>
</svg>
