<svg width="16" height="20" viewBox="0 0 16 20" fill="none" xmlns="http://www.w3.org/2000/svg">
<path d="M0 17V15H2V8C2 6.61667 2.41667 5.38734 3.25 4.312C4.08333 3.23667 5.16667 2.53267 6.5 2.2V1.5C6.5 1.08334 6.646 0.729002 6.938 0.437002C7.23 0.145002 7.584 -0.000664389 8 2.2779e-06C8.41667 2.2779e-06 8.771 0.146002 9.063 0.438002C9.355 0.730002 9.50067 1.084 9.5 1.5V2.2C10.8333 2.53334 11.9167 3.23767 12.75 4.313C13.5833 5.38834 14 6.61734 14 8V15H16V17H0ZM8 20C7.45 20 6.979 19.804 6.587 19.412C6.195 19.02 5.99933 18.5493 6 18H10C10 18.55 9.804 19.021 9.412 19.413C9.02 19.805 8.54933 20.0007 8 20ZM4 15H12V8C12 6.9 11.6083 5.95834 10.825 5.175C10.0417 4.39167 9.1 4 8 4C6.9 4 5.95833 4.39167 5.175 5.175C4.39167 5.95834 4 6.9 4 8V15Z" fill="white"/>
</svg>
