<svg width="32" height="32" viewBox="0 0 32 32" fill="none" xmlns="http://www.w3.org/2000/svg">
<path fill-rule="evenodd" clip-rule="evenodd" d="M10.8571 6V3H21.1429V6H10.8571ZM7.42857 6V2C7.42857 1.46957 7.66939 0.960859 8.09804 0.585786C8.5267 0.210714 9.10808 0 9.71429 0L22.2857 0C22.8919 0 23.4733 0.210714 23.902 0.585786C24.3306 0.960859 24.5714 1.46957 24.5714 2V6H30.2857C30.7404 6 31.1764 6.15804 31.4979 6.43934C31.8194 6.72064 32 7.10218 32 7.5C32 7.89782 31.8194 8.27936 31.4979 8.56066C31.1764 8.84196 30.7404 9 30.2857 9H29.4514L27.7531 28.306C27.665 29.3109 27.1466 30.2496 26.3016 30.9345C25.4566 31.6194 24.3473 31.9999 23.1954 32H8.80457C7.65275 31.9999 6.5434 31.6194 5.69839 30.9345C4.85337 30.2496 4.33497 29.3109 4.24686 28.306L2.54857 9H1.71429C1.25963 9 0.823594 8.84196 0.502103 8.56066C0.180612 8.27936 0 7.89782 0 7.5C0 7.10218 0.180612 6.72064 0.502103 6.43934C0.823594 6.15804 1.25963 6 1.71429 6H7.42857ZM5.98857 9H26.0114L24.3337 28.076C24.3118 28.3271 24.1825 28.5618 23.9714 28.7331C23.7604 28.9044 23.4833 28.9997 23.1954 29H8.80457C8.51672 28.9997 8.23959 28.9044 8.02857 28.7331C7.81754 28.5618 7.68816 28.3271 7.66629 28.076L5.98857 9Z" fill="#EB5757"/>
</svg>
