<svg width="32" height="32" viewBox="0 0 32 32" fill="none" xmlns="http://www.w3.org/2000/svg">
<path d="M12.3333 29.3334L11.8 25.0667C11.5111 24.9556 11.2386 24.8222 10.9826 24.6667C10.7266 24.5111 10.4769 24.3445 10.2333 24.1667L6.26664 25.8334L2.59998 19.5L6.03331 16.9C6.01109 16.7445 5.99998 16.5942 5.99998 16.4494V15.5507C5.99998 15.4058 6.01109 15.2556 6.03331 15.1L2.59998 12.5L6.26664 6.16669L10.2333 7.83335C10.4778 7.65558 10.7333 7.48891 11 7.33335C11.2666 7.1778 11.5333 7.04446 11.8 6.93335L12.3333 2.66669H19.6666L20.2 6.93335C20.4889 7.04446 20.7613 7.1778 21.0173 7.33335C21.2733 7.48891 21.5231 7.65558 21.7666 7.83335L25.7333 6.16669L29.4 12.5L25.9666 15.1C25.9889 15.2556 26 15.4058 26 15.5507V16.4494C26 16.5942 25.9778 16.7445 25.9333 16.9L29.3666 19.5L25.7 25.8334L21.7666 24.1667C21.5222 24.3445 21.2666 24.5111 21 24.6667C20.7333 24.8222 20.4666 24.9556 20.2 25.0667L19.6666 29.3334H12.3333ZM14.6666 26.6667H17.3L17.7666 23.1334C18.4555 22.9556 19.0946 22.6942 19.684 22.3494C20.2733 22.0045 20.812 21.588 21.3 21.1L24.6 22.4667L25.9 20.2L23.0333 18.0334C23.1444 17.7222 23.2222 17.3947 23.2666 17.0507C23.3111 16.7067 23.3333 16.3565 23.3333 16C23.3333 15.6445 23.3111 15.2947 23.2666 14.9507C23.2222 14.6067 23.1444 14.2787 23.0333 13.9667L25.9 11.8L24.6 9.53335L21.3 10.9334C20.8111 10.4222 20.2724 9.99469 19.684 9.65069C19.0955 9.30669 18.4564 9.04535 17.7666 8.86669L17.3333 5.33335H14.7L14.2333 8.86669C13.5444 9.04446 12.9058 9.3058 12.3173 9.65069C11.7289 9.99558 11.1898 10.412 10.7 10.9L7.39998 9.53335L6.09998 11.8L8.96664 13.9334C8.85553 14.2667 8.77775 14.6 8.73331 14.9334C8.68886 15.2667 8.66664 15.6222 8.66664 16C8.66664 16.3556 8.68886 16.7 8.73331 17.0334C8.77775 17.3667 8.85553 17.7 8.96664 18.0334L6.09998 20.2L7.39998 22.4667L10.7 21.0667C11.1889 21.5778 11.728 22.0058 12.3173 22.3507C12.9066 22.6956 13.5453 22.9565 14.2333 23.1334L14.6666 26.6667ZM16.0666 20.6667C17.3555 20.6667 18.4555 20.2111 19.3666 19.3C20.2778 18.3889 20.7333 17.2889 20.7333 16C20.7333 14.7111 20.2778 13.6111 19.3666 12.7C18.4555 11.7889 17.3555 11.3334 16.0666 11.3334C14.7555 11.3334 13.6498 11.7889 12.7493 12.7C11.8489 13.6111 11.3991 14.7111 11.4 16C11.4 17.2889 11.8498 18.3889 12.7493 19.3C13.6489 20.2111 14.7546 20.6667 16.0666 20.6667Z" fill="#FBFAF6"/>
</svg>
